#N canvas -8 -8 1366 690 10;
#X obj 122 142 tgl 15 0 empty empty empty 17 7 0 10 #fcfcfc #000000
#000000 0 1;
#X obj 120 283 the_grainer~ 1;
#X obj 237 142 bng 15 250 50 0 empty empty empty 17 7 0 10 #fcfcfc
#000000 #000000;
#N canvas 0 0 1350 674 load-file 0;
#X obj 112 76 inlet;
#X obj 112 112 openpanel;
#X obj 539 254 soundfiler;
#X obj 512 76 loadbang;
#X obj 512 112 f \$0;
#X msg 539 219 read -resize envelopes/01-gaussian.wav \$1-envelope
;
#X msg 512 287 atab \$1-envelope;
#X obj 512 183 t f f;
#X obj 112 434 outlet;
#X obj 139 254 soundfiler;
#X obj 112 183 t b s;
#X msg 112 349 atab \$1-table;
#X obj 139 219 sprintf read -resize -maxsize 4.3e+007 %s %i-table;
#X obj 112 305 f;
#X connect 0 0 1 0;
#X connect 1 0 10 0;
#X connect 3 0 4 0;
#X connect 4 0 7 0;
#X connect 4 0 12 1;
#X connect 4 0 13 1;
#X connect 5 0 2 0;
#X connect 6 0 8 0;
#X connect 7 0 6 0;
#X connect 7 1 5 0;
#X connect 10 0 13 0;
#X connect 10 1 12 0;
#X connect 11 0 8 0;
#X connect 12 0 9 0;
#X connect 13 0 11 0;
#X restore 237 174 pd load-file;
#N canvas 0 0 450 300 (subpatch) 0;
#X array \$0-envelope 121 float 0 black black;
#X coords 0 1 120 0 250 50 1;
#X restore 646 258 graph;
#N canvas 0 0 450 300 (subpatch) 0;
#X array \$0-table 9.67848e+006 float 0 black black;
#X coords 0 1 9.67848e+006 0 250 50 1;
#X restore 619 364 graph;
#X obj 120 355 output~;
#X msg 442 190 start;
#X msg 364 179 stop;
#X obj 366 141 loadbang;
#N canvas 0 0 1350 707 osc-msg 0;
#X obj 180 84 mrpeach/unpackOSC;
#X obj 180 131 mrpeach/routeOSC /cbcs;
#X obj 201 8 mrpeach/udpreceive 12000;
#X msg 180 325 add2 \$1;
#X msg 295 401 51500 54000 55000 54500 36500 35500 55500 34000 52000
52500 53000 53500 39000 37500 38500 38000 37000;
#X msg 320 207 set;
#X obj 180 208 list-drip, f 18;
#X obj 180 170 t l b, f 24;
#X obj 295 460 prepend ptr_table;
#X obj 180 39 gate;
#X obj 295 505 outlet;
#X obj 180 -36 inlet;
#N canvas 0 0 450 300 get-ms 0;
#X obj 159 71 inlet;
#X obj 159 114 s2l \;;
#X obj 159 166 unpack f s f;
#X obj 228 211 outlet;
#X connect 0 0 1 0;
#X connect 1 0 2 0;
#X connect 2 2 3 0;
#X restore 180 254 pd get-ms;
#X connect 0 0 1 0;
#X connect 1 0 7 0;
#X connect 2 0 9 1;
#X connect 3 0 4 0;
#X connect 4 0 8 0;
#X connect 5 0 4 0;
#X connect 6 0 12 0;
#X connect 6 1 4 0;
#X connect 7 0 6 0;
#X connect 7 1 5 0;
#X connect 8 0 10 0;
#X connect 9 0 0 0;
#X connect 11 0 9 0;
#X connect 12 0 3 0;
#X restore 122 174 pd osc-msg;
#X connect 0 0 10 0;
#X connect 1 0 6 0;
#X connect 1 1 6 1;
#X connect 2 0 3 0;
#X connect 3 0 1 0;
#X connect 7 0 1 0;
#X connect 8 0 1 0;
#X connect 9 0 8 0;
#X connect 10 0 1 0;
