#N canvas -8 -728 1280 672 10;
#X obj 462 61 tgl 15 0 empty empty empty 17 7 0 10 #fcfcfc #000000
#000000 0 1;
#X obj 463 477 the_grainer~ 1;
#X obj 513 257 bng 15 250 50 0 empty empty empty 17 7 0 10 #fcfcfc
#000000 #000000;
#N canvas 0 0 1264 689 load-file 0;
#X obj 112 76 inlet;
#X obj 112 112 openpanel;
#X obj 539 254 soundfiler;
#X obj 512 76 loadbang;
#X obj 512 112 f \$0;
#X msg 539 219 read -resize envelopes/01-gaussian.wav \$1-envelope
;
#X msg 512 287 atab \$1-envelope;
#X obj 512 183 t f f;
#X obj 112 434 outlet;
#X obj 139 254 soundfiler;
#X obj 112 183 t b s;
#X obj 112 305 f;
#X obj 139 219 sprintf read -resize -maxsize 4.3e+007 %s %i-table;
#X msg 112 349 gtab \$1-table;
#X connect 0 0 1 0;
#X connect 1 0 10 0;
#X connect 3 0 4 0;
#X connect 4 0 7 0;
#X connect 4 0 11 1;
#X connect 4 0 12 1;
#X connect 5 0 2 0;
#X connect 6 0 8 0;
#X connect 7 0 6 0;
#X connect 7 1 5 0;
#X connect 10 0 11 0;
#X connect 10 1 12 0;
#X connect 11 0 13 0;
#X connect 12 0 9 0;
#X connect 13 0 8 0;
#X restore 513 289 pd load-file;
#N canvas 0 0 450 300 (subpatch) 0;
#X array \$0-envelope 121 float 0 black black;
#X coords 0 1 120 0 250 50 1;
#X restore 732 399 graph;
#N canvas 0 0 1366 690 (subpatch) 0;
#X array \$0-table 3.32561e+007 float 0 black black;
#X coords 0 1 3.32561e+007 0 250 50 1;
#X restore 731 468 graph;
#X msg 568 410 start;
#X msg 529 408 stop;
#X obj 531 370 loadbang;
#N canvas 0 0 1334 691 osc-msg 0;
#X obj 274 158 mrpeach/unpackOSC;
#X obj 295 63 mrpeach/udpreceive 12000;
#X msg 490 395 add2 \$1;
#X msg 594 471 702.38;
#X msg 630 317 set;
#X obj 490 318 list-drip, f 18;
#X obj 490 280 t l b, f 24;
#X obj 594 530 prepend ptr_table;
#X obj 274 113 gate;
#X obj 594 575 outlet;
#X obj 274 -29 inlet;
#X obj 490 358 / 1000;
#X obj 490 201 mrpeach/routeOSC /concatenate/1;
#X obj 490 236 mrpeach/routeOSC /single-file-position;
#X obj 489 -29 inlet;
#X obj 295 18 inlet;
#X connect 0 0 12 0;
#X connect 1 0 8 1;
#X connect 2 0 3 0;
#X connect 3 0 7 0;
#X connect 4 0 3 0;
#X connect 5 0 11 0;
#X connect 5 1 3 0;
#X connect 6 0 5 0;
#X connect 6 1 4 0;
#X connect 7 0 9 0;
#X connect 8 0 0 0;
#X connect 10 0 8 0;
#X connect 11 0 2 0;
#X connect 12 0 13 0;
#X connect 13 0 6 0;
#X connect 14 0 12 0;
#X connect 15 0 1 0;
#X restore 462 184 pd osc-msg;
#X text 742 341 INCR;
#X text 744 301 SIZE;
#X text 747 321 GAP;
#X obj 781 324 hsl 128 15 0.02 2 1 0 \$0-gapGUIout \$0-gapGUIin empty
-2 -8 0 10 #fcfcfc #000000 #000000 7468 1;
#X obj 782 304 hsl 128 15 0.02 2 1 0 \$0-sizeGUIout \$0-sizeGUIin empty
-2 -8 0 10 #fcfcfc #000000 #000000 6965 1;
#X obj 781 344 hsl 128 15 1 4000 0 0 \$0-incrGUIout \$0-incrGUIin empty
-2 -8 0 10 #fcfcfc #000000 #000000 3173 1;
#X floatatom 915 323 5 0 0 0 - #0-gapGUIout -, f 5;
#X floatatom 915 303 5 0 0 0 - #0-sizeGUIout -, f 5;
#X floatatom 915 343 5 0 0 0 - #0-incrGUIout -, f 5;
#X obj 781 364 hsl 128 15 0.02 2 1 0 \$0-ampGUIout \$0-ampGUIin empty
-2 -8 0 10 #fcfcfc #000000 #000000 10788 1;
#X floatatom 915 364 5 0 0 0 - #0-ampGUIout -, f 5;
#X text 746 362 AMP;
#X text 804 283 GRAIN PARAMETERS;
#X obj 463 506 dac~ 1 2;
#N canvas 0 0 1350 707 init 0;
#X text 128 108 SIZE;
#X text 220 108 INCR;
#X text 317 108 START;
#X text 515 108 AMP;
#X text 257 120 rnd dev;
#X text 66 120 rnd dev;
#X text 32 108 GAP;
#X text 25 120 (secs);
#X text 124 120 (secs);
#X text 162 120 rnd dev;
#X text 213 120 (ref:1);
#X text 314 120 (ini:0);
#X text 358 120 rnd dev;
#X text 510 120 (0-1);
#X text 546 120 rnd dev;
#X text 410 120 (ini:0);
#X text 454 120 rnd dev;
#X text 413 108 END;
#X obj 716 125 loadbang;
#X msg 78 142 gar 0;
#X msg 174 142 gsr 0;
#X msg 220 142 gf 1;
#X msg 264 142 gfr 0;
#X msg 320 142 gst 0;
#X msg 366 142 gstr 0;
#X msg 462 142 genr 0;
#X msg 512 142 ag 1;
#X msg 556 142 agr 0;
#X text 259 76 my_grainer initial values;
#X msg 121 142 gs 0.25;
#X msg 30 142 ga 0.3;
#X msg 416 142 gen 0;
#X obj 324 429 outlet;
#X connect 18 0 30 0;
#X connect 18 0 19 0;
#X connect 18 0 29 0;
#X connect 18 0 20 0;
#X connect 18 0 21 0;
#X connect 18 0 22 0;
#X connect 18 0 23 0;
#X connect 18 0 24 0;
#X connect 18 0 31 0;
#X connect 18 0 25 0;
#X connect 18 0 26 0;
#X connect 18 0 27 0;
#X connect 19 0 32 0;
#X connect 20 0 32 0;
#X connect 21 0 32 0;
#X connect 22 0 32 0;
#X connect 23 0 32 0;
#X connect 24 0 32 0;
#X connect 25 0 32 0;
#X connect 26 0 32 0;
#X connect 27 0 32 0;
#X connect 29 0 32 0;
#X connect 30 0 32 0;
#X connect 31 0 32 0;
#X restore 321 436 pd init;
#N canvas 0 0 1350 707 gui 0;
#X msg 116 237 gf \$1;
#X floatatom 116 215 5 0 0 0 - - -, f 5;
#X msg 334 237 ga \$1;
#X msg 225 237 gs \$1;
#X floatatom 225 215 5 0 0 0 - - -, f 5;
#X floatatom 334 215 5 0 0 0 - - -, f 5;
#X obj 334 174 r \$0-gapGUIout;
#X obj 225 174 r \$0-sizeGUIout;
#X obj 116 174 r \$0-incrGUIout;
#X obj 116 153 s \$0-incrGUIin;
#X obj 225 153 s \$0-sizeGUIin;
#X obj 334 153 s \$0-gapGUIin;
#X obj 716 98 loadbang;
#X obj 681 115 del 1;
#X text 268 100 GUI setup;
#X msg 225 132 0.25;
#X msg 334 132 0.3;
#X msg 444 132 1;
#X msg 444 237 ag \$1;
#X obj 444 153 s \$0-ampGUIin;
#X obj 444 173 r \$0-ampGUIout;
#X floatatom 444 216 5 0 0 0 - - -, f 5;
#X obj 681 94 b;
#X msg 116 132 1000;
#X obj 353 446 outlet;
#X connect 0 0 24 0;
#X connect 1 0 0 0;
#X connect 2 0 24 0;
#X connect 3 0 24 0;
#X connect 4 0 3 0;
#X connect 5 0 2 0;
#X connect 6 0 5 0;
#X connect 7 0 4 0;
#X connect 8 0 1 0;
#X connect 12 0 13 0;
#X connect 13 0 23 0;
#X connect 13 0 15 0;
#X connect 13 0 16 0;
#X connect 13 0 17 0;
#X connect 15 0 10 0;
#X connect 16 0 11 0;
#X connect 17 0 19 0;
#X connect 18 0 24 0;
#X connect 20 0 21 0;
#X connect 21 0 18 0;
#X connect 22 0 13 0;
#X connect 23 0 9 0;
#X restore 383 437 pd gui;
#X msg 519 159 /concatenate/1;
#X msg 490 101 port 12000;
#X text 461 38 Activa conexión OSC;
#X text 490 79 Elige puerto;
#X text 518 137 Elige patrón de dirección;
#X text 513 231 Carga archivo;
#X text 531 350 Activa reproducción de granos;
#X text 111 183 Una solución paraa recibir datos de concatenate en
PD -->;
#X connect 0 0 9 0;
#X connect 1 0 23 0;
#X connect 1 1 23 1;
#X connect 2 0 3 0;
#X connect 3 0 1 0;
#X connect 6 0 1 0;
#X connect 7 0 1 0;
#X connect 8 0 7 0;
#X connect 9 0 1 0;
#X connect 24 0 1 0;
#X connect 25 0 1 0;
#X connect 26 0 9 2;
#X connect 27 0 9 1;
